<?xml version="1.0" encoding="UTF-8"?>
<!DOCTYPE svg PUBLIC "-//W3C//DTD SVG 1.1//EN" "http://www.w3.org/Graphics/SVG/1.1/DTD/svg11.dtd">
<!-- Creator: CorelDRAW -->
<svg xmlns="http://www.w3.org/2000/svg" xml:space="preserve" width="210mm" height="297mm" style="shape-rendering:geometricPrecision; text-rendering:geometricPrecision; image-rendering:optimizeQuality; fill-rule:evenodd; clip-rule:evenodd"
viewBox="0 0 210 297"
 xmlns:xlink="http://www.w3.org/1999/xlink">
 <defs>
  <style type="text/css">
   <![CDATA[
    .fil0 {fill:none}
    .fil1 {fill:#B8DB7C}
   ]]>
  </style>
 </defs>
 <g id="Слой_x0020_1">
  <metadata id="CorelCorpID_0Corel-Layer"/>
  <path class="fil0" d="M102.909 124.714l-4.633 -3.277 -2.373 0 0 -2.5425c0,0 -6.2715,-3.39 -6.9495,-4.0115 -0.678,-0.6215 -0.678,-0.6215 -0.678,-0.6215l-0.339 -4.8025 -3.3335 -2.7685 -2.2035 -5.4805 3.6725 -2.938 0.113 -6.667 -3.1075 -5.763 -7.797 -5.0285 -1.921 0.9605 -10.057 -5.311 -27.6333 -5.3229 -5.7681 1.4703 -1.131 2.6013 -4.8633 1.8096 -1.8096 -2.4882 -4.6371 0.5655 -3.8454 -3.5061 8.7087 -8.1432 2.6013 0 2.7144 -3.6192 4.1847 1.4703 4.2978 3.1668 1.0179 -2.7144 7.2384 -3.1668 10.8576 2.4882 -2.1489 -2.3751 2.7144 -1.4703 4.524 1.3572 9.1611 8.5956 5.2026 2.0358 3.9585 -0.3393 3.7323 4.9764 9.6135 3.1668 7.5777 5.5419 4.0716 0.2262 14.1375 4.7502 4.8633 2.8275 -3.0537 4.7502 -6.3336 -2.6013 0 2.7144 -8.2563 4.8633 7.4646 7.4646 -1.3572 9.2742 -7.2384 -0.4524 -0.9595 8.3339z"/>
  <polygon class="fil0" points="125.51,92.6215 122.968,90.5629 119.785,95.5837 113.77,93.087 113.714,95.2302 105.508,100.25 112.755,107.215 112.902,107.398 112.244,111.639 119.417,108.32 125.163,110.233 132.89,105.749 141.124,129.944 141.265,130.226 139.771,131.749 141.096,133.3 141.604,139.025 143.155,138.827 143.747,129.493 144.593,127.773 145.115,115.278 148.674,109.572 146.358,100.588 138.448,99.6275 131.951,95.277 132.177,92 128.56,90.644 "/>
  <path class="fil0" d="M103.555 121.141l-4.633 -3.277 -2.373 0 0 -2.5425c0,0 -6.2715,-3.39 -6.9495,-4.0115 -0.678,-0.6215 -0.678,-0.6215 -0.678,-0.6215l-0.339 -4.8025 -3.3335 -2.7685 -2.2035 -5.4805 3.6725 -2.938 0.113 -6.667 -3.1075 -5.763 -7.797 -5.0285 -1.921 0.9605 -10.057 -5.311 -27.6333 -5.3229 -5.7681 1.4703 -1.131 2.6013 -4.8633 1.8096 -1.8096 -2.4882 -4.6371 0.5655 -3.8454 -3.5061 8.7087 -8.1432 2.6013 0 2.7144 -3.6192 4.1847 1.4703 4.2978 3.1668 1.0179 -2.7144 7.2384 -3.1668 10.8576 2.4882 -2.1489 -2.3751 2.7144 -1.4703 4.524 1.3572 9.1611 8.5956 5.2026 2.0358 3.9585 -0.3393 3.7323 4.9764 9.6135 3.1668 7.5777 5.5419 4.0716 0.2262 14.1375 4.7502 4.8633 2.8275 -3.0537 4.7502 -6.3336 -2.6013 0 2.7144 -8.2563 4.8633 7.4646 7.4646 -1.3572 9.2742 -7.2384 -0.4524 -0.9595 8.3339z"/>
  <polygon class="fil0" points="126.146,89.1489 123.604,87.0903 120.421,92.1111 114.406,89.6144 114.35,91.7576 106.144,96.7772 113.391,103.743 113.538,103.925 112.88,108.166 120.053,104.847 125.799,106.76 133.526,102.276 141.76,126.472 141.901,126.754 140.407,128.277 141.732,129.828 142.24,135.552 143.791,135.355 144.383,126.021 145.229,124.3 145.751,111.805 149.31,106.099 146.994,97.1154 139.084,96.1549 132.587,91.8044 132.813,88.5274 129.197,87.1714 "/>
  <polygon class="fil0" points="88.4455,123.075 88.362,114.829 95.6094,119.172 95.6376,121.851 98.232,121.766 103.082,125.179 104.126,116.606 111.31,117.142 112.247,112.037 119.438,108.71 125.248,110.599 132.629,106.295 140.878,130.137 139.578,131.494 123.702,131.889 119.803,130.081 108.899,129.459 103.079,126.522 96.8075,126.691 "/>
  <polygon class="fil0" points="89.0997,119.602 89.0162,111.357 96.2636,115.699 96.2918,118.378 98.8862,118.294 103.737,121.706 104.78,113.133 111.964,113.669 112.902,108.565 120.093,105.237 125.902,107.127 133.283,102.822 141.532,126.665 140.232,128.021 124.356,128.416 120.457,126.608 109.553,125.987 103.733,123.049 97.4617,123.218 "/>
  <polygon class="fil0" points="66.6365,135.731 66.354,131.494 67.823,130.194 66.241,126.409 59.913,121.38 59.687,118.668 50.9295,118.894 44.2625,115.334 44.206,118.442 50.873,123.923 51.212,126.635 50.534,128.838 51.099,130.42 53.924,130.363 54.037,126.07 56.3535,125.052 57.7095,128.951 59.913,129.064 64.0375,132.115 "/>
  <polygon class="fil1" points="67.2907,132.258 67.0082,128.021 68.4772,126.721 66.8952,122.936 60.5672,117.907 60.3412,115.195 51.5837,115.421 44.9167,111.862 44.8602,114.969 51.5272,120.45 51.8662,123.162 51.1882,125.365 51.7532,126.947 54.5782,126.891 54.6912,122.597 57.0077,121.58 58.3637,125.478 60.5672,125.591 64.6917,128.642 "/>
  <polygon class="fil0" points="124.097,132.624 139.239,132.172 140.532,133.554 141.096,139.307 137.627,140.378 124.43,134.992 "/>
  <polygon class="fil0" points="124.751,129.151 139.893,128.699 141.186,130.081 141.75,135.834 138.282,136.906 125.084,131.52 "/>
  <polygon class="fil0" points="124.402,135.641 137.317,140.942 136.922,143.283 134.441,143.424 130.143,148.557 124.549,145.223 122.572,140.082 "/>
  <polygon class="fil0" points="125.056,132.168 137.971,137.47 137.577,139.81 135.095,139.951 130.797,145.084 125.203,141.75 123.226,136.609 "/>
  <polygon class="fil0" points="137.43,143.452 137.768,140.914 147.695,137.812 150.515,138.348 148.992,145.962 149.753,147.88 145.354,149.825 "/>
  <polygon class="fil0" points="149.161,109.951 152.743,111.445 155.704,114.632 154.688,117.339 155.083,131.608 150.712,137.643 147.836,137.248 143.578,138.574 144.142,129.691 145.185,127.829 145.619,115.61 "/>
  <polygon class="fil0" points="149.815,106.478 153.397,107.973 156.358,111.159 155.343,113.866 155.737,128.136 151.366,134.17 148.49,133.776 144.232,135.101 144.796,126.218 145.839,124.357 146.274,112.137 "/>
  <polygon class="fil0" points="156.155,114.688 158.636,114.716 164.22,122.641 166.166,130.283 169.86,127.858 172.574,133.076 170.709,134.432 169.071,132.963 164.834,144.319 156.019,144.206 153.816,148.557 150.935,149.63 149.635,145.675 151.274,137.822 155.68,131.663 155,117.397 "/>
  <polygon class="fil0" points="156.809,111.216 159.291,111.244 164.874,119.168 166.82,126.81 170.514,124.385 173.228,129.603 171.364,130.959 169.725,129.49 165.488,140.846 156.674,140.733 154.47,145.084 151.589,146.157 150.289,142.202 151.928,134.349 156.335,128.19 155.654,113.924 "/>
  <polygon class="fil0" points="130.042,153.181 130.267,148.923 134.695,143.903 136.951,143.734 142.675,148.359 139.207,150.7 138.389,154.281 136.302,154.478 135.541,152.476 "/>
  <polygon class="fil0" points="130.696,149.709 130.921,145.45 135.349,140.431 137.605,140.262 143.329,144.886 139.861,147.227 139.043,150.808 136.956,151.006 136.195,149.004 "/>
  <polygon class="fil0" points="145.761,150.159 149.948,148.33 150.769,150.372 154.122,149.053 156.528,144.601 164.747,144.813 166.359,164.15 163.647,165.902 163.459,168.889 167.999,171.765 172.765,171.962 172.906,174.162 170.932,177.32 167.858,175.375 165.856,179.153 "/>
  <polygon class="fil0" points="146.415,146.687 150.603,144.857 151.423,146.899 154.776,145.581 157.182,141.129 165.401,141.34 167.013,160.678 164.301,162.429 164.113,165.416 168.653,168.292 173.419,168.49 173.56,170.689 171.586,173.848 168.512,171.902 166.51,175.681 "/>
  <polygon class="fil0" points="159.692,171.947 145.18,150.372 143.044,148.585 141.162,149.989 148.279,176.468 "/>
  <polygon class="fil0" points="160.346,168.475 145.835,146.899 143.698,145.113 141.817,146.517 148.933,172.995 "/>
  <polygon class="fil0" points="140.539,150.421 147.714,176.75 139.974,180.762 140.426,187.202 141.612,189.632 138.93,196.341 135.763,196.794 130.9,192.383 134.519,183.222 131.239,184.126 125.019,182.204 129.769,173.156 135.311,167.614 135.198,159.471 136.471,154.93 138.586,154.732 139.545,150.841 "/>
  <polygon class="fil0" points="123.137,149.065 129.464,149.065 129.478,153.266 129.478,153.802 135.23,152.984 136.048,154.986 134.554,159.695 134.723,167.225 129.308,172.893 120.172,175.318 128.829,163.361 123.104,163.249 117.041,156.565 120.566,156.283 124.267,152.399 "/>
  <polygon class="fil0" points="108.503,162.964 117.148,162.06 117.091,160.535 118.391,159.122 122.851,163.841 127.927,163.897 119.238,175.959 128.899,173.53 124.323,182.513 119.351,185.168 117.204,181.835 113.757,185.338 115.566,185.564 115.961,189.463 113.984,193.531 111.215,192.852 111.611,197.203 109.52,200.084 113.935,210.818 112.125,212.175 108.619,209.8 105.905,205.276 103.53,206.181 101.607,204.145 105.339,196.115 101.607,191.704 107.828,186.388 109.637,177.906 105.113,178.049 105.17,172.173 107.769,172.173 "/>
  <polygon class="fil0" points="107.486,163.021 98.2765,164.885 97.768,163.021 95.9035,163.36 89.858,157.483 82.965,156.128 77.202,152.907 73.247,152.907 69.066,164.546 75.5635,165.959 79.123,171.1 80.8745,168.162 85.8465,169.688 86.8635,175.055 99.915,172.512 99.576,176.581 102.006,178.219 104.718,178.223 104.69,171.624 107.538,171.709 108.187,162.854 "/>
  <polygon class="fil0" points="108.14,159.548 98.9307,161.412 98.4222,159.548 96.5577,159.887 90.5122,154.011 83.6192,152.655 77.8562,149.434 73.9012,149.434 69.7202,161.073 76.2177,162.486 79.7772,167.627 81.5287,164.689 86.5007,166.215 87.5177,171.582 100.569,169.04 100.23,173.108 102.66,174.746 105.372,174.75 105.344,168.151 108.192,168.236 108.841,159.381 "/>
  <polygon class="fil0" points="46.918,150.195 46.805,146.975 48.726,143.019 58.2745,146.41 64.094,145.053 72.9648,152.702 68.5938,164.377 65.2098,165.223 57.7932,163.361 55.4244,161.049 55.086,152.307 "/>
  <polygon class="fil0" points="47.5722,146.722 47.4592,143.502 49.3802,139.547 58.9287,142.937 64.7482,141.581 73.619,149.229 69.248,160.904 65.864,161.75 58.4474,159.889 56.0786,157.576 55.7402,148.834 "/>
  <polygon class="fil0" points="127.959,218.848 124.906,216.699 133.614,203.467 135.602,197.176 139.026,196.708 141.955,189.531 140.597,187.035 140.25,180.902 155.003,174.547 157.997,180.988 167.998,187.259 164.664,192.287 167.094,196.582 171.839,195.395 171.839,198.955 175.569,200.932 174.778,207.543 168.732,211.441 163.986,211.724 161.896,207.656 154.946,205.339 152.291,215.622 143.646,215.791 142.403,218.278 139.465,218.504 138.957,221.329 137.431,221.159 128.617,228.843 130.651,223.928 129.125,224.041 "/>
  <polygon class="fil0" points="152.178,225.849 142.177,221.555 139.338,221.372 139.734,218.684 142.684,218.514 143.851,216.018 152.63,216.124 155.337,205.887 161.597,208.002 164.107,212.796 164.558,217.054 164.777,225.001 161.048,230.821 156.471,220.594 154.89,220.82 "/>
  <polygon class="fil0" points="152.832,222.376 142.831,218.082 139.992,217.899 140.388,215.211 143.338,215.041 144.505,212.545 153.284,212.651 155.991,202.414 162.252,204.529 164.761,209.323 165.213,213.582 165.431,221.528 161.702,227.348 157.126,217.121 155.544,217.347 "/>
  <polygon class="fil0" points="173.365,174.773 177.942,176.92 187.716,185.846 196.869,185.733 201.333,193.587 197.717,196.751 193.253,196.073 190.315,199.858 190.937,202.627 185.456,203.983 182.857,200.875 176.08,200.948 172.133,198.793 172.006,194.949 167.28,196.268 164.932,192.254 168.422,187.021 158.383,180.733 155.365,174.416 160.131,172.216 166.053,179.887 167.942,175.995 171.214,178.054 "/>
  <polygon class="fil0" points="174.019,171.3 178.596,173.447 188.37,182.374 197.523,182.261 201.987,190.114 198.371,193.278 193.907,192.6 190.969,196.386 191.591,199.154 186.11,200.51 183.511,197.403 176.735,197.476 172.787,195.32 172.66,191.476 167.935,192.795 165.586,188.782 169.076,183.549 159.037,177.26 156.019,170.943 160.785,168.744 166.707,176.414 168.597,172.522 171.868,174.581 "/>
  <polygon class="fil0" points="138.084,139.98 138.423,137.442 148.349,134.34 151.169,134.875 149.646,142.489 150.408,144.407 146.008,146.353 "/>
  <polygon class="fil0" points="128.613,215.376 125.56,213.227 134.269,199.994 136.257,193.703 139.681,193.235 142.609,186.059 141.251,183.562 140.904,177.429 155.657,171.074 158.651,177.515 168.652,183.786 165.318,188.815 167.748,193.109 172.494,191.922 172.494,195.482 176.223,197.459 175.432,204.07 169.386,207.968 164.64,208.251 162.55,204.183 155.6,201.866 152.945,212.149 144.3,212.319 143.057,214.805 140.119,215.031 139.611,217.856 138.085,217.686 129.271,225.37 131.305,220.455 129.78,220.568 "/>
  <polygon class="fil0" points="109.157,159.491 117.802,158.587 117.745,157.062 119.045,155.649 123.505,160.368 128.581,160.425 119.892,172.486 129.554,170.057 124.977,179.04 120.005,181.696 117.858,178.362 114.412,181.865 116.22,182.091 116.615,185.99 114.638,190.058 111.869,189.38 112.265,193.73 110.174,196.612 114.589,207.346 112.78,208.703 109.273,206.328 106.559,201.804 104.184,202.708 102.261,200.673 105.994,192.643 102.261,188.232 108.482,182.916 110.291,174.433 105.767,174.577 105.824,168.701 108.423,168.701 "/>
  <polygon class="fil0" points="123.791,145.592 130.119,145.592 130.132,149.793 130.132,150.329 135.885,149.511 136.702,151.513 135.208,156.223 135.377,163.752 129.963,169.42 120.826,171.846 129.483,159.889 123.759,159.776 117.696,153.093 121.221,152.811 124.921,148.926 "/>
  <polygon class="fil0" points="141.093,146.948 148.268,173.277 140.528,177.289 140.98,183.73 142.166,186.159 139.484,192.869 136.317,193.321 131.454,188.91 135.073,179.749 131.793,180.654 125.573,178.731 130.323,169.683 135.865,164.141 135.752,155.998 137.025,151.457 139.14,151.26 140.099,147.368 "/>
 </g>
</svg>
