<?xml version="1.0" encoding="UTF-8"?>
<!DOCTYPE svg PUBLIC "-//W3C//DTD SVG 1.1//EN" "http://www.w3.org/Graphics/SVG/1.1/DTD/svg11.dtd">
<!-- Creator: CorelDRAW -->
<svg xmlns="http://www.w3.org/2000/svg" xml:space="preserve" width="210mm" height="297mm" style="shape-rendering:geometricPrecision; text-rendering:geometricPrecision; image-rendering:optimizeQuality; fill-rule:evenodd; clip-rule:evenodd"
viewBox="0 0 210 297"
 xmlns:xlink="http://www.w3.org/1999/xlink">
 <defs>
  <style type="text/css">
   <![CDATA[
    .fil3 {fill:#0F4473}
    .fil1 {fill:#125792}
    .fil2 {fill:#166DB8}
    .fil0 {fill:#F8F8F8}
   ]]>
  </style>
 </defs>
 <g id="Слой_x0020_1">
  <metadata id="CorelCorpID_0Corel-Layer"/>
  <g id="_119337888">
   <polygon id="_119332656" class="fil0" points="86.4514,19.0143 85.8386,19.6055 84.634,18.365 90.8635,13.2307 106.316,13.2556 106.316,14.9973 105.968,14.9973 106.039,18.9608 105.11,18.9952 101.071,23.7036 90.7496,23.6536 "/>
  </g>
  <polygon class="fil1" points="86.4725,18.264 90.9801,23.1293 100.83,23.177 104.861,18.4786 105.505,18.4548 105.433,14.4719 105.791,14.4719 105.791,13.7802 91.0517,13.7564 85.408,18.4079 85.8507,18.8638 "/>
  <polygon class="fil2" points="87.3636,17.6677 91.1319,14.3765 94.0177,14.4003 94.0056,17.6924 "/>
  <rect class="fil2" x="94.4578" y="14.4242" width="5.00845" height="3.24357"/>
  <rect class="fil2" x="99.8609" y="14.4372" width="5.00845" height="3.24357"/>
  <polygon class="fil3" points="87.4027,18.1924 104.455,18.1924 103.931,18.6933 87.832,18.6456 "/>
  <polygon class="fil3" points="91.7202,14.3813 88.1419,17.6706 87.3636,17.6677 91.1319,14.3765 "/>
  <polygon class="fil3" points="95.0346,14.4242 95.0346,17.6677 94.4578,17.6677 94.4578,14.4242 "/>
  <polygon class="fil3" points="100.433,14.4417 100.433,17.6853 99.8562,17.6853 99.8562,14.4417 "/>
  <polygon class="fil2" points="90.9002,22.4383 91.2353,22.7741 100.7,22.7861 101.047,22.3663 "/>
 </g>
</svg>
