<?xml version="1.0" encoding="UTF-8"?>
<!DOCTYPE svg PUBLIC "-//W3C//DTD SVG 1.1//EN" "http://www.w3.org/Graphics/SVG/1.1/DTD/svg11.dtd">
<!-- Creator: CorelDRAW -->
<svg xmlns="http://www.w3.org/2000/svg" xml:space="preserve" width="210mm" height="297mm" style="shape-rendering:geometricPrecision; text-rendering:geometricPrecision; image-rendering:optimizeQuality; fill-rule:evenodd; clip-rule:evenodd"
viewBox="0 0 210 297"
 xmlns:xlink="http://www.w3.org/1999/xlink">
 <defs>
  <style type="text/css">
   <![CDATA[
    .str0 {stroke:#0F4473;stroke-width:0.25;stroke-linecap:round;stroke-linejoin:round}
    .fil4 {fill:none}
    .fil2 {fill:#0F4473}
    .fil1 {fill:#125792}
    .fil3 {fill:#166DB8}
    .fil0 {fill:#F8F8F8}
   ]]>
  </style>
   <mask id="id0">
  <linearGradient id="id1" gradientUnits="userSpaceOnUse" x1="34.7879" y1="19.5382" x2="36.1757" y2="19.5002">
   <stop offset="0" style="stop-opacity:1; stop-color:white"/>
   <stop offset="1" style="stop-opacity:0; stop-color:white"/>
  </linearGradient>
    <rect style="fill:url(#id1)" x="34.5269" y="18.937" width="1.9098" height="1.1644"/>
   </mask>
   <mask id="id2">
  <linearGradient id="id3" gradientUnits="userSpaceOnUse" x1="29.9978" y1="14.8648" x2="29.9364" y2="17.6888">
   <stop offset="0" style="stop-opacity:1; stop-color:white"/>
   <stop offset="1" style="stop-opacity:0; stop-color:white"/>
  </linearGradient>
    <rect style="fill:url(#id3)" x="27.8367" y="14.8082" width="4.2608" height="2.9371"/>
   </mask>
   <mask id="id4">
  <linearGradient id="id5" gradientUnits="userSpaceOnUse" x1="23.9768" y1="13.1278" x2="18.4734" y2="17.3728">
   <stop offset="0" style="stop-opacity:1; stop-color:white"/>
   <stop offset="1" style="stop-opacity:0; stop-color:white"/>
  </linearGradient>
    <rect style="fill:url(#id5)" x="17.4027" y="13.0373" width="7.6448" height="4.426"/>
   </mask>
   <mask id="id6">
  <linearGradient id="id7" gradientUnits="userSpaceOnUse" x1="26.2972" y1="13.5109" x2="20.8342" y2="17.7245">
   <stop offset="0" style="stop-opacity:1; stop-color:white"/>
   <stop offset="1" style="stop-opacity:0; stop-color:white"/>
  </linearGradient>
    <rect style="fill:url(#id7)" x="20.9559" y="13.1234" width="5.2196" height="4.9885"/>
   </mask>
   <mask id="id8">
  <linearGradient id="id9" gradientUnits="userSpaceOnUse" x1="25.5354" y1="13.3848" x2="20.9934" y2="16.9428">
   <stop offset="0" style="stop-opacity:1; stop-color:white"/>
   <stop offset="1" style="stop-opacity:0; stop-color:white"/>
  </linearGradient>
    <rect style="fill:url(#id9)" x="20.9785" y="13.1762" width="4.5718" height="3.9752"/>
   </mask>
 </defs>
 <g id="Слой_x0020_1">
  <metadata id="CorelCorpID_0Corel-Layer"/>
  <g id="_115710624">
   <path id="_115710696" class="fil0" d="M27.1408 13.7359l2.4061 0c0.5284,-0.0421 1.1613,0.3716 1.5287,0.695 0.9371,0.8246 1.8556,1.6934 2.7692,2.5467 0.6455,0.2958 1.2923,0.5925 1.9326,0.8987 0.385,0.1842 0.6216,0.5815 0.7767,0.9625 0.1377,0.3382 0.2313,0.7068 0.299,1.0657 0.0154,0.0822 0.0296,0.1648 0.0422,0.2474 0.0086,0.0561 0.0169,0.1126 0.0234,0.169l0.0124 0.1084 -0.0318 0.1044c-0.127,0.4173 -0.3324,0.8946 -0.5691,1.2604 -0.3367,0.5204 -1.1347,0.7532 -1.7229,0.8022l-0.0241 0.002 -0.5227 -0.0047 -0.0322 -0.4864c-0.0412,-0.6252 -0.451,-1.1683 -1.0388,-1.382 -0.1051,-0.0384 -0.2143,-0.0652 -0.3252,-0.0803 -0.0715,-0.0097 -0.1435,-0.0145 -0.2156,-0.0145 -0.8187,0 -1.5047,0.6259 -1.5768,1.4412l-0.0429 0.4845 -4.3127 -0.0484 0 0.0904 -4.7732 0 0 -0.7332 -2.1755 0c0.0263,0.1325 0.0397,0.2681 0.0397,0.4052 0,1.173 -0.9666,2.1046 -2.1328,2.1046 -1.1662,0 -2.1328,-0.9316 -2.1328,-2.1046 0,-0.1371 0.0134,-0.2727 0.0397,-0.4052l-2.3239 0 0 -1.7183 -1.5445 0 0 -8.0568 15.6278 0 0 1.6461z"/>
  </g>
  <path class="fil0" d="M12.0384 12.6152l14.577 0 0 7.006 0.4103 0 -0.0196 -5.3599 2.5662 0c0,0 0.4512,-0.0564 1.1562,0.564 0.705,0.6204 2.82,2.5944 2.82,2.5944 0,0 1.3536,0.6204 2.0022,0.9306 0.2216,0.106 0.3905,0.3764 0.5168,0.6867 0.1327,0.3258 0.2185,0.6954 0.2692,0.9644 0.0168,0.0897 0.0298,0.1681 0.0393,0.2301 0.0143,0.0933 0.0207,0.1492 0.0207,0.1492 0,0 -0.1974,0.6486 -0.5076,1.128 -0.3102,0.4794 -1.3254,0.564 -1.3254,0.564l-0.0111 -0.0001c-0.0561,-0.8497 -0.6156,-1.5619 -1.3831,-1.841 -0.1386,-0.0506 -0.2841,-0.0869 -0.4346,-0.1073 -0.0936,-0.0127 -0.1891,-0.0193 -0.2862,-0.0193 -1.101,0 -2.0049,0.844 -2.1002,1.9203l-3.3142 -0.0372 -0.0024 -0.6486 -1.041 0 0 0.7332 -3.7224 0 0 -0.7332 -3.4953 0c0.1941,0.261 0.3087,0.5827 0.3087,0.9306 0,0.872 -0.7198,1.5792 -1.6074,1.5792 -0.8876,0 -1.6074,-0.7072 -1.6074,-1.5792 0,-0.3479 0.1146,-0.6696 0.3087,-0.9306l-2.5929 0 0 -0.9306 0.987 0 0 -0.7877 -2.5315 0 0 -7.006z"/>
  <rect class="fil1" x="12.0384" y="12.6152" width="14.577" height="7.006"/>
  <rect class="fil2" x="13.5829" y="20.4089" width="13.4514" height="0.9306"/>
  <rect class="fil1" x="22.2685" y="20.9165" width="3.7224" height="1.1562"/>
  <rect class="fil2" x="14.5699" y="19.6212" width="12.4644" height="0.8703"/>
  <ellipse class="fil1" cx="17.4745" cy="22.2701" rx="1.6074" ry="1.5792"/>
  <ellipse class="fil3" cx="17.4745" cy="22.2701" rx="0.9484" ry="0.931761"/>
  <path class="fil1" d="M27.0061 14.2613l2.5662 0c0,0 0.4512,-0.0564 1.1562,0.564 0.705,0.6204 2.82,2.5944 2.82,2.5944 0,0 1.3536,0.6204 2.0022,0.9306 0.6486,0.3102 0.846,2.0304 0.846,2.0304 0,0 -0.1974,0.6486 -0.5076,1.128 -0.3102,0.4794 -1.3254,0.564 -1.3254,0.564l-0.0111 -0.0001c-0.0726,-1.0987 -0.9868,-1.9676 -2.1039,-1.9676 -1.101,0 -2.0049,0.844 -2.1002,1.9203l-3.3142 -0.0372 -0.0282 -7.7268z"/>
  <path class="fil2" d="M36.376 20.2315c0.0143,0.0933 0.0207,0.1492 0.0207,0.1492 0,0 -0.1974,0.6486 -0.5076,1.128 -0.3102,0.4794 -1.3254,0.564 -1.3254,0.564l-0.0111 -0.0001c-0.0561,-0.8497 -0.6157,-1.5618 -1.3831,-1.841l0 -0.0001 3.2065 0z"/>
  <path class="fil0" style="mask:url(#id0)" d="M34.6269 19.037l1.4406 0c0.1327,0.3258 0.2185,0.6954 0.2692,0.9644l-1.7098 0 0 -0.9644z"/>
  <path class="fil0" style="mask:url(#id2)" d="M27.9649 17.5607l-0.0282 -2.6508 1.692 0c0,0 0.3948,-0.0564 0.846,0.4794 0.4512,0.5358 1.5228,1.551 1.5228,1.551l0 0.705 -4.0326 -0.0846z"/>
  <line class="fil4 str0" x1="29.3185" y1="18.0965" x2="32.3359" y2= "18.1247" />
  <line class="fil4 str0" x1="32.7589" y1="17.3633" x2="32.7349" y2= "20.1243" />
  <path class="fil3" style="mask:url(#id4)" d="M17.5027 15.9815c5.217,-2.2278 7.2756,-3.0738 7.4448,-2.7918 0.1692,0.282 -6.5424,4.1736 -6.5424,4.1736 0,0 0.9218,-1.2451 -0.9024,-1.3818z"/>
  <path class="fil3" style="mask:url(#id6)" d="M21.0559 17.4479c0,0 4.9632,-4.5966 5.0196,-4.2018 0.0564,0.3948 -3.384,4.7658 -3.384,4.7658 0,0 0.1128,-1.0434 -1.6356,-0.564z"/>
  <path class="fil2" style="mask:url(#id8)" d="M21.0785 16.3417c3.4239,-2.482 4.3293,-3.1061 4.3718,-3.0635 0.0425,0.0426 -3.9634,3.7732 -3.9634,3.7732 0,0 1.0489,-1.3195 -0.4084,-0.7097z"/>
  <g id="_115709280">
   <path id="_115709352" class="fil0" d="M32.4487 20.1095c1.1775,0 2.1324,0.9423 2.1324,2.1042 0,1.1619 -0.9549,2.1042 -2.1324,2.1042 -1.1775,0 -2.1324,-0.9423 -2.1324,-2.1042 0,-1.1619 0.9549,-2.1042 2.1324,-2.1042z"/>
  </g>
  <ellipse class="fil1" cx="32.4487" cy="22.2137" rx="1.6074" ry="1.5792"/>
  <ellipse class="fil3" cx="32.4487" cy="22.2137" rx="0.9484" ry="0.931761"/>
 </g>
</svg>
