<?xml version="1.0" encoding="UTF-8"?>
<!DOCTYPE svg PUBLIC "-//W3C//DTD SVG 1.1//EN" "http://www.w3.org/Graphics/SVG/1.1/DTD/svg11.dtd">
<!-- Creator: CorelDRAW -->
<svg xmlns="http://www.w3.org/2000/svg" xml:space="preserve" width="210mm" height="297mm" style="shape-rendering:geometricPrecision; text-rendering:geometricPrecision; image-rendering:optimizeQuality; fill-rule:evenodd; clip-rule:evenodd"
viewBox="0 0 210 297"
 xmlns:xlink="http://www.w3.org/1999/xlink">
 <defs>
  <style type="text/css">
   <![CDATA[
    .str0 {stroke:#6CB031;stroke-width:0.25;stroke-linecap:round;stroke-linejoin:round}
    .fil4 {fill:none}
    .fil1 {fill:#84C225}
    .fil3 {fill:#B8DB7C}
    .fil5 {fill:#6AAD32}
    .fil2 {fill:#6CB031}
    .fil0 {fill:#F8F8F8}
   ]]>
  </style>
   <mask id="id0">
  <linearGradient id="id1" gradientUnits="userSpaceOnUse" x1="67.2193" y1="19.7876" x2="68.6071" y2="19.7496">
   <stop offset="0" style="stop-opacity:1; stop-color:white"/>
   <stop offset="1" style="stop-opacity:0; stop-color:white"/>
  </linearGradient>
    <rect style="fill:url(#id1)" x="66.9583" y="19.1864" width="1.9098" height="1.1644"/>
   </mask>
   <mask id="id2">
  <linearGradient id="id3" gradientUnits="userSpaceOnUse" x1="62.4292" y1="15.1142" x2="62.3678" y2="17.9382">
   <stop offset="0" style="stop-opacity:1; stop-color:white"/>
   <stop offset="1" style="stop-opacity:0; stop-color:white"/>
  </linearGradient>
    <rect style="fill:url(#id3)" x="60.2681" y="15.0576" width="4.2608" height="2.9371"/>
   </mask>
   <mask id="id4">
  <linearGradient id="id5" gradientUnits="userSpaceOnUse" x1="56.4082" y1="13.3772" x2="50.9048" y2="17.6222">
   <stop offset="0" style="stop-opacity:1; stop-color:white"/>
   <stop offset="1" style="stop-opacity:0; stop-color:white"/>
  </linearGradient>
    <rect style="fill:url(#id5)" x="49.8341" y="13.2867" width="7.6448" height="4.426"/>
   </mask>
   <mask id="id6">
  <linearGradient id="id7" gradientUnits="userSpaceOnUse" x1="58.7286" y1="13.7603" x2="53.2656" y2="17.9739">
   <stop offset="0" style="stop-opacity:1; stop-color:white"/>
   <stop offset="1" style="stop-opacity:0; stop-color:white"/>
  </linearGradient>
    <rect style="fill:url(#id7)" x="53.3873" y="13.3728" width="5.2196" height="4.9885"/>
   </mask>
   <mask id="id8">
  <linearGradient id="id9" gradientUnits="userSpaceOnUse" x1="57.9668" y1="13.6342" x2="53.4248" y2="17.1922">
   <stop offset="0" style="stop-opacity:1; stop-color:white"/>
   <stop offset="1" style="stop-opacity:0; stop-color:white"/>
  </linearGradient>
    <rect style="fill:url(#id9)" x="53.4099" y="13.4256" width="4.5718" height="3.9752"/>
   </mask>
 </defs>
 <g id="Слой_x0020_1">
  <metadata id="CorelCorpID_0Corel-Layer"/>
  <g id="_115711776">
   <path id="_115711848" class="fil0" d="M59.5722 13.9853l2.4061 0c0.5284,-0.0421 1.1613,0.3716 1.5287,0.695 0.9371,0.8246 1.8556,1.6934 2.7692,2.5467 0.6455,0.2958 1.2923,0.5925 1.9326,0.8987 0.385,0.1842 0.6216,0.5815 0.7767,0.9625 0.1377,0.3382 0.2313,0.7068 0.299,1.0657 0.0154,0.0822 0.0296,0.1648 0.0422,0.2474 0.0086,0.056 0.0169,0.1127 0.0234,0.169l0.0124 0.1084 -0.0318 0.1044c-0.127,0.4173 -0.3324,0.8946 -0.5691,1.2604 -0.3367,0.5204 -1.1347,0.7532 -1.7229,0.8022l-0.0241 0.002 -0.5227 -0.0047 -0.0322 -0.4864c-0.0412,-0.6252 -0.451,-1.1683 -1.0388,-1.382 -0.1051,-0.0384 -0.2143,-0.0652 -0.3252,-0.0803 -0.0715,-0.0097 -0.1435,-0.0145 -0.2156,-0.0145 -0.8187,0 -1.5047,0.6259 -1.5768,1.4412l-0.0429 0.4845 -4.3127 -0.0484 0 0.0904 -4.7732 0 0 -0.7332 -2.1755 0c0.0263,0.1325 0.0397,0.2681 0.0397,0.4052 0,1.173 -0.9666,2.1046 -2.1328,2.1046 -1.1662,0 -2.1328,-0.9316 -2.1328,-2.1046 0,-0.1371 0.0134,-0.2727 0.0397,-0.4052l-2.3239 0 0 -1.7183 -1.5445 0 0 -8.0568 15.6278 0 0 1.6461z"/>
  </g>
  <path class="fil0" d="M44.4698 12.8646l14.577 0 0 7.006 0.4103 0 -0.0196 -5.3599 2.5662 0c0,0 0.4512,-0.0564 1.1562,0.564 0.705,0.6204 2.82,2.5944 2.82,2.5944 0,0 1.3536,0.6204 2.0022,0.9306 0.2216,0.106 0.3905,0.3764 0.5168,0.6867 0.1327,0.3258 0.2185,0.6954 0.2692,0.9644 0.0168,0.0897 0.0298,0.1681 0.0393,0.2301 0.0143,0.0933 0.0207,0.1492 0.0207,0.1492 0,0 -0.1974,0.6486 -0.5076,1.128 -0.3102,0.4794 -1.3254,0.564 -1.3254,0.564l-0.0111 -0.0001c-0.0561,-0.8497 -0.6156,-1.5619 -1.3831,-1.841 -0.1386,-0.0506 -0.2841,-0.0869 -0.4346,-0.1073 -0.0936,-0.0127 -0.1891,-0.0193 -0.2862,-0.0193 -1.101,0 -2.0049,0.844 -2.1002,1.9203l-3.3142 -0.0372 -0.0024 -0.6486 -1.041 0 0 0.7332 -3.7224 0 0 -0.7332 -3.4953 0c0.1941,0.261 0.3087,0.5827 0.3087,0.9306 0,0.872 -0.7198,1.5792 -1.6074,1.5792 -0.8876,0 -1.6074,-0.7072 -1.6074,-1.5792 0,-0.3479 0.1146,-0.6696 0.3087,-0.9306l-2.5929 0 0 -0.9306 0.987 0 0 -0.7877 -2.5315 0 0 -7.006z"/>
  <rect class="fil1" x="44.4698" y="12.8646" width="14.577" height="7.006"/>
  <rect class="fil2" x="46.0143" y="20.6583" width="13.4514" height="0.9306"/>
  <rect class="fil1" x="54.6999" y="21.1659" width="3.7224" height="1.1562"/>
  <rect class="fil2" x="47.0013" y="19.8706" width="12.4644" height="0.8634"/>
  <ellipse class="fil1" cx="49.9059" cy="22.5195" rx="1.6074" ry="1.5792"/>
  <ellipse class="fil3" cx="49.9059" cy="22.5195" rx="0.9484" ry="0.931761"/>
  <path class="fil1" d="M59.4375 14.5107l2.5662 0c0,0 0.4512,-0.0564 1.1562,0.564 0.705,0.6204 2.82,2.5944 2.82,2.5944 0,0 1.3536,0.6204 2.0022,0.9306 0.6486,0.3102 0.846,2.0304 0.846,2.0304 0,0 -0.1974,0.6486 -0.5076,1.128 -0.3102,0.4794 -1.3254,0.564 -1.3254,0.564l-0.0111 -0.0001c-0.0726,-1.0987 -0.9868,-1.9676 -2.1039,-1.9676 -1.101,0 -2.0049,0.844 -2.1002,1.9203l-3.3142 -0.0372 -0.0282 -7.7268z"/>
  <path class="fil2" d="M68.8074 20.4809c0.0143,0.0933 0.0207,0.1492 0.0207,0.1492 0,0 -0.1974,0.6486 -0.5076,1.128 -0.3102,0.4794 -1.3254,0.564 -1.3254,0.564l-0.0111 -0.0001c-0.0561,-0.8497 -0.6157,-1.5618 -1.3831,-1.841l0 -0.0001 3.2065 0z"/>
  <path class="fil0" style="mask:url(#id0)" d="M67.0583 19.2864l1.4406 0c0.1327,0.3258 0.2185,0.6954 0.2692,0.9644l-1.7098 0 0 -0.9644z"/>
  <path class="fil0" style="mask:url(#id2)" d="M60.3963 17.8101l-0.0282 -2.6508 1.692 0c0,0 0.3948,-0.0564 0.846,0.4794 0.4512,0.5358 1.5228,1.551 1.5228,1.551l0 0.705 -4.0326 -0.0846z"/>
  <line class="fil4 str0" x1="61.7499" y1="18.3459" x2="64.7673" y2= "18.3741" />
  <line class="fil4 str0" x1="65.1903" y1="17.6127" x2="65.1663" y2= "20.3737" />
  <path class="fil3" style="mask:url(#id4)" d="M49.9341 16.2309c5.217,-2.2278 7.2756,-3.0738 7.4448,-2.7918 0.1692,0.282 -6.5424,4.1736 -6.5424,4.1736 0,0 0.9218,-1.2451 -0.9024,-1.3818z"/>
  <path class="fil3" style="mask:url(#id6)" d="M53.4873 17.6973c0,0 4.9632,-4.5966 5.0196,-4.2018 0.0564,0.3948 -3.384,4.7658 -3.384,4.7658 0,0 0.1128,-1.0434 -1.6356,-0.564z"/>
  <path class="fil5" style="mask:url(#id8)" d="M53.5099 16.5911c3.4239,-2.482 4.3293,-3.1061 4.3718,-3.0635 0.0425,0.0426 -3.9634,3.7732 -3.9634,3.7732 0,0 1.0489,-1.3195 -0.4084,-0.7097z"/>
  <g id="_116921680">
   <path id="_116921752" class="fil0" d="M64.8801 20.3589c1.1775,0 2.1324,0.9423 2.1324,2.1042 0,1.1619 -0.9549,2.1042 -2.1324,2.1042 -1.1775,0 -2.1324,-0.9423 -2.1324,-2.1042 0,-1.1619 0.9549,-2.1042 2.1324,-2.1042z"/>
  </g>
  <ellipse class="fil1" cx="64.8801" cy="22.4631" rx="1.6074" ry="1.5792"/>
  <ellipse class="fil3" cx="64.8801" cy="22.4631" rx="0.9484" ry="0.931761"/>
 </g>
</svg>
